<svg width="24" height="24" viewBox="0 0 24 24" fill="none" xmlns="http://www.w3.org/2000/svg">
<path d="M15.84 4.21149C7.56 1.57149 0 7.69149 0 15.6115C0 16.6915 0.12 18.7315 0.48 19.9315C0.48 20.1715 0.72 20.4115 0.96 20.4115H22.92C23.16 20.4115 23.4 20.1715 23.52 19.9315C23.76 18.7315 24 16.6915 24 15.6115C24 10.4515 20.76 5.77149 15.84 4.21149ZM12 6.01149C12.72 6.01149 13.2 6.49149 13.2 7.21149C13.2 7.93149 12.72 8.41149 12 8.41149C11.28 8.41149 10.8 7.93149 10.8 7.21149C10.8 6.49149 11.28 6.01149 12 6.01149ZM3.6 16.8115C2.88 16.8115 2.4 16.3315 2.4 15.6115C2.4 14.8915 2.88 14.4115 3.6 14.4115C4.32 14.4115 4.8 14.8915 4.8 15.6115C4.8 16.3315 4.32 16.8115 3.6 16.8115ZM6.96 10.5715C6.48 11.0515 5.76 11.0515 5.28 10.5715C4.8 10.0915 4.8 9.25149 5.16 8.77149C5.64 8.29149 6.36 8.29149 6.84 8.77149C7.32 9.25149 7.32 10.0915 6.96 10.5715ZM12 18.0115C10.68 18.0115 9.48 16.8115 9.84 15.6115C10.2 14.4115 12 10.8115 12 10.8115C12 10.8115 13.8 14.4115 14.16 15.6115C14.52 16.8115 13.32 18.0115 12 18.0115ZM18.84 10.5715C18.36 11.0515 17.64 11.0515 17.16 10.5715C16.68 10.0915 16.68 9.37149 17.16 8.89149C17.64 8.41149 18.36 8.41149 18.84 8.89149C19.2 9.25149 19.2 10.0915 18.84 10.5715ZM20.4 16.8115C19.68 16.8115 19.2 16.3315 19.2 15.6115C19.2 14.8915 19.68 14.4115 20.4 14.4115C21.12 14.4115 21.6 14.8915 21.6 15.6115C21.6 16.3315 21.12 16.8115 20.4 16.8115Z" fill="white"/>
</svg>
