<svg width="24" height="24" viewBox="0 0 24 24" fill="none" xmlns="http://www.w3.org/2000/svg">
<g clip-path="url(#clip0)">
<path d="M7.93548 12.7031H16.3729C16.7617 12.7031 17.0761 12.3885 17.0761 12V3.51561C17.0761 3.12706 16.7617 2.81249 16.3729 2.81249H14.2636V2.10937C14.2636 0.946285 13.3173 0 12.1542 0C10.9911 0 10.0448 0.946285 10.0448 2.10937V2.81249H7.93548C7.54693 2.81249 7.23236 3.12706 7.23236 3.51561V12C7.23236 12.3885 7.54693 12.7031 7.93548 12.7031ZM11.4511 2.10937C11.4511 1.72137 11.7669 1.40624 12.1542 1.40624C12.5415 1.40624 12.8573 1.72137 12.8573 2.10937V2.81249H11.4511V2.10937Z" fill="#858796"/>
<path d="M22.3976 11.636C22.2713 11.4259 22.0418 11.2968 21.7961 11.2968C20.5572 11.2968 19.4207 11.9844 18.8456 13.0817L16.6888 17.1979C16.3222 17.8956 15.6066 18.3281 14.8198 18.3281H10.0448C9.65628 18.3281 9.3417 18.0135 9.3417 17.6249C9.3417 17.2364 9.65628 16.9218 10.0448 16.9218H14.8196C15.082 16.9218 15.321 16.7777 15.4433 16.5448C15.5651 16.3123 15.9329 15.6101 16.2491 15.0065C16.3488 14.8165 16.3418 14.5882 16.2307 14.4045C16.1193 14.221 15.9203 14.1093 15.7057 14.1093H8.39688C7.45756 14.1093 6.57591 14.4754 5.91124 15.1393L1.75293 19.2976C1.47827 19.5723 1.47827 20.0172 1.75293 20.2919L5.26854 23.7939C5.40587 23.9313 5.58586 24.0001 5.76567 24.0001C5.94548 24.0001 6.12547 23.9313 6.2628 23.7939L8.92972 21.1406H14.8196C16.6558 21.1406 18.327 20.1298 19.1799 18.5031L22.4181 12.3268C22.5335 12.1091 22.5252 11.8469 22.3976 11.636Z" fill="#858796"/>
</g>
<defs>
<clipPath id="clip0">
<rect width="24" height="24" fill="white"/>
</clipPath>
</defs>
</svg>
