<svg width="24" height="24" viewBox="0 0 24 24" fill="none" xmlns="http://www.w3.org/2000/svg">
<path d="M20.5355 12.8119H18.6794C18.8686 13.3299 18.972 13.8889 18.972 14.4715V21.4863C18.972 21.7292 18.9297 21.9624 18.8528 22.1792H21.9213C23.0675 22.1792 24 21.2467 24 20.1005V16.2764C24 14.3661 22.4458 12.8119 20.5355 12.8119Z" fill="#858796"/>
<path d="M5.02806 14.4715C5.02806 13.8889 5.13142 13.3299 5.3206 12.812H3.46454C1.55419 12.812 0 14.3661 0 16.2765V20.1006C0 21.2468 0.932486 22.1793 2.07872 22.1793H5.14726C5.07034 21.9624 5.02806 21.7293 5.02806 21.4864V14.4715Z" fill="#858796"/>
<path d="M14.1216 11.007H9.87841C7.96807 11.007 6.41388 12.5612 6.41388 14.4715V21.4864C6.41388 21.869 6.7241 22.1793 7.10679 22.1793H16.8933C17.276 22.1793 17.5862 21.8691 17.5862 21.4864V14.4715C17.5862 12.5612 16.032 11.007 14.1216 11.007Z" fill="#858796"/>
<path d="M12 1.82063C9.70259 1.82063 7.8335 3.68973 7.8335 5.98722C7.8335 7.54558 8.69361 8.9066 9.96382 9.62116C10.5663 9.96007 11.2609 10.1538 12 10.1538C12.7392 10.1538 13.4337 9.96007 14.0362 9.62116C15.3065 8.9066 16.1666 7.54553 16.1666 5.98722C16.1666 3.68978 14.2975 1.82063 12 1.82063Z" fill="#858796"/>
<path d="M4.68365 5.70419C2.96544 5.70419 1.56763 7.10201 1.56763 8.82022C1.56763 10.5384 2.96544 11.9362 4.68365 11.9362C5.11949 11.9362 5.53453 11.846 5.91154 11.6837C6.56339 11.403 7.10086 10.9063 7.43343 10.284C7.66687 9.84725 7.79967 9.34901 7.79967 8.82022C7.79967 7.10206 6.40185 5.70419 4.68365 5.70419Z" fill="#858796"/>
<path d="M19.3164 5.70419C17.5982 5.70419 16.2004 7.10201 16.2004 8.82022C16.2004 9.34906 16.3332 9.8473 16.5666 10.284C16.8992 10.9063 17.4367 11.4031 18.0885 11.6837C18.4655 11.846 18.8806 11.9362 19.3164 11.9362C21.0346 11.9362 22.4324 10.5384 22.4324 8.82022C22.4324 7.10201 21.0346 5.70419 19.3164 5.70419Z" fill="#858796"/>
</svg>
